<svg xmlns="http://www.w3.org/2000/svg" width="133.333" height="133.333" preserveAspectRatio="xMidYMid meet" version="1.0" viewBox="0 0 100 100"><metadata>Created by potrace 1.14, written by Peter Selinger 2001-2017</metadata><g fill="#000" stroke="none"><path d="M34 968 c-13 -20 -7 -132 10 -189 19 -64 19 -62 1 -55 -38 14 -24 -71 21 -131 30 -40 30 -42 -6 -54 -25 -9 -28 -13 -18 -29 7 -10 32 -31 56 -46 l44 -28 -21 -18 -22 -17 23 -12 c67 -36 187 -43 267 -14 24 8 47 15 52 15 4 0 -4 -28 -18 -62 -30 -76 -32 -140 -3 -202 24 -54 36 -58 45 -16 12 56 32 31 38 -49 3 -48 18 -48 49 2 59 93 66 163 28 265 -26 68 -25 76 2 61 70 -38 180 -43 268 -14 53 18 59 25 35 45 -19 16 -19 30 0 30 17 0 85 57 85 72 0 5 -13 14 -30 19 l-30 11 26 33 c28 37 57 121 48 137 -3 5 -12 7 -20 4 -17 -7 -17 -4 1 64 9 30 16 81 16 112 1 93 -18 103 -55 31 -35 -70 -95 -127 -175 -167 -77 -39 -137 -87 -146 -117 -8 -23 -50 -26 -59 -3 -3 9 -6 40 -6 69 0 30 -5 57 -10 60 -6 4 -4 12 5 21 8 9 15 22 15 29 0 20 -17 27 -24 10 -3 -8 -21 -23 -41 -32 -19 -9 -35 -22 -35 -27 0 -6 -10 -16 -22 -21 -33 -15 -36 -44 -4 -38 21 4 26 0 32 -21 13 -54 -25 -86 -54 -45 -29 43 -73 77 -154 120 -84 45 -130 90 -169 164 -25 47 -33 53 -45 33z" transform="translate(0.000000,100.000000) scale(0.100000,-0.100000)"/></g></svg>